<?xml version="1.0" encoding="UTF-8" standalone="no"?>
<!-- Uploaded to: SVG Repo, www.svgrepo.com, Generator: SVG Repo Mixer Tools -->

<svg
   width="20"
   height="24"
   viewBox="0 0 0.833 0.9996"
   fill="none"
   version="1.1"
   id="svg6"
   sodipodi:docname="pitch_edit.svg"
   inkscape:export-filename="pitch_edit2.svg"
   inkscape:export-xdpi="95.244141"
   inkscape:export-ydpi="95.244141"
   inkscape:version="1.4 (86a8ad7, 2024-10-11)"
   xmlns:inkscape="http://www.inkscape.org/namespaces/inkscape"
   xmlns:sodipodi="http://sodipodi.sourceforge.net/DTD/sodipodi-0.dtd"
   xmlns="http://www.w3.org/2000/svg"
   xmlns:svg="http://www.w3.org/2000/svg">
  <defs
     id="defs6" />
  <sodipodi:namedview
     id="namedview6"
     pagecolor="#ffffff"
     bordercolor="#666666"
     borderopacity="1.0"
     inkscape:showpageshadow="2"
     inkscape:pageopacity="0.0"
     inkscape:pagecheckerboard="0"
     inkscape:deskcolor="#d1d1d1"
     inkscape:zoom="15.14"
     inkscape:cx="5.0198151"
     inkscape:cy="9.8745046"
     inkscape:window-width="1920"
     inkscape:window-height="974"
     inkscape:window-x="-11"
     inkscape:window-y="-11"
     inkscape:window-maximized="1"
     inkscape:current-layer="svg6"
     showgrid="true">
    <inkscape:grid
       id="grid6"
       units="px"
       originx="-0.1121526"
       originy="0.0019840052"
       spacingx="0.041666667"
       spacingy="0.041666666"
       empcolor="#0099e5"
       empopacity="0.30196078"
       color="#0099e5"
       opacity="0.14901961"
       empspacing="5"
       enabled="true"
       visible="true" />
  </sodipodi:namedview>
  <g
     id="g6"
     transform="matrix(1.5202751,0,0,1.4911248,-0.38006878,-0.3727812)"
     style="stroke-width:1.10696;stroke-dasharray:none">
    <path
       d="m 0.71500942,0.9206271 h -0.3815624 c -0.022075,0 -0.0432503,-0.00875 -0.0588891,-0.024328 -0.0156388,-0.015578 -0.024466,-0.036722 -0.0245485,-0.058797 V 0.33593996 c -1.6625e-4,-0.0110619 0.00187,-0.0220463 0.005989,-0.032314 0.004119,-0.0102678 0.0102388,-0.0196141 0.0180032,-0.027495 0.007764,-0.007881 0.0170184,-0.0141387 0.027224,-0.0184097 0.0102053,-0.004271 0.0211585,-0.00647 0.0322216,-0.006469 h 0.3815622 c 0.01105,-1.88e-6 0.021988,0.002198 0.032175,0.006474 0.010188,0.004275 0.019422,0.0105378 0.027162,0.0184232 0.00774,0.007885 0.013831,0.0172341 0.017915,0.0275003 0.00408,0.0102663 0.00608,0.0212438 0.00587,0.0322907 V 0.8390646 c -4.125e-4,0.021775 -0.00935,0.042519 -0.024894,0.057772 -0.015544,0.015253 -0.036453,0.023794 -0.058231,0.023791 z M 0.33344702,0.29812746 c -0.004921,-4.719e-5 -0.0098,9.085e-4 -0.01434,0.002808 -0.004539,0.0019 -0.008645,0.004704 -0.0120659,0.008242 -0.003421,0.003538 -0.006086,0.007735 -0.007832,0.0123362 -0.001746,0.004602 -0.002537,0.009509 -0.002324,0.0144263 V 0.8390645 c 4.05e-4,0.0094 0.004444,0.018266 0.0112668,0.024737 0.006822,0.00647 0.0158922,0.010041 0.0252957,0.00995 h 0.3815618 c 0.00962,0 0.018835,-0.00382 0.025631,-0.010616 0.0068,-0.0068 0.010619,-0.016019 0.010619,-0.025635 V 0.33593996 c 0,-0.009614 -0.00382,-0.0188344 -0.010619,-0.0256328 -0.0068,-0.006798 -0.016016,-0.0106172 -0.025631,-0.0106172 z"
       fill="#000000"
       id="path1"
       style="stroke-width:1.10696;stroke-dasharray:none" />
    <path
       d="M 0.7740719,0.60937714 H 0.60125942 c -0.00622,0 -0.012178,-0.00247 -0.016571,-0.00687 -0.00439,-0.0044 -0.00687,-0.010356 -0.00687,-0.016572 0,-0.00622 0.00247,-0.012178 0.00687,-0.016572 0.0044,-0.00439 0.010357,-0.00687 0.016571,-0.00687 H 0.7740719 c 0.00622,0 0.012178,0.00247 0.016572,0.00687 0.00439,0.00439 0.00687,0.010356 0.00687,0.016572 0,0.00622 -0.00247,0.012178 -0.00687,0.016572 -0.00439,0.00439 -0.010356,0.00687 -0.016572,0.00687 z"
       fill="#000000"
       id="path2"
       style="stroke-width:1.10696;stroke-dasharray:none" />
    <path
       d="M 0.44719692,0.60937714 H 0.274072 c -0.006216,0 -0.0121775,-0.00247 -0.0165728,-0.00687 -0.004395,-0.0044 -0.006865,-0.010356 -0.006865,-0.016572 0,-0.00622 0.00247,-0.012178 0.006865,-0.016572 0.004395,-0.00439 0.0103569,-0.00687 0.0165728,-0.00687 h 0.17312492 c 0.00622,0 0.012178,0.00247 0.016572,0.00687 0.0044,0.00439 0.00687,0.010356 0.00687,0.016572 0,0.00622 -0.00247,0.012178 -0.00687,0.016572 -0.00439,0.00439 -0.010356,0.00687 -0.016572,0.00687 z"
       fill="#000000"
       id="path3"
       style="stroke-width:1.10696;stroke-dasharray:none" />
    <path
       d="m 0.62907192,0.40250244 h -0.21 c -0.00619,-8.12e-5 -0.012105,-0.00258 -0.016483,-0.00695 -0.00438,-0.00438 -0.00687,-0.010293 -0.00695,-0.016483 V 0.27343996 c 0,-0.006216 0.00247,-0.0121775 0.00686,-0.0165728 0.004396,-0.004395 0.0103574,-0.006865 0.0165733,-0.006865 h 0.21 c 0.00309,-4.219e-5 0.00616,5.35e-4 0.00902,0.001699 0.00286,0.001162 0.00546,0.002888 0.00765,0.005073 0.00219,0.002184 0.00391,0.004785 0.00508,0.007648 0.00116,0.002862 0.00173,0.005929 0.0017,0.009019 v 0.10562378 c 0,0.00622 -0.00247,0.012177 -0.00687,0.016573 -0.0044,0.0044 -0.010356,0.00686 -0.016572,0.00686 z m -0.1875,-0.046875 h 0.163125 v -0.0575 h -0.1621875 z"
       fill="#000000"
       id="path4"
       style="stroke-width:1.10696;stroke-dasharray:none" />
    <path
       d="m 0.62907192,0.9206271 h -0.21 c -0.00601,9.4e-6 -0.011785,-0.00229 -0.016146,-0.00642 -0.00436,-0.00413 -0.00697,-0.00977 -0.00729,-0.015772 v -0.105625 c 8.07e-5,-0.00619 0.00258,-0.012106 0.00695,-0.016484 0.00438,-0.00438 0.010292,-0.00687 0.016483,-0.00695 h 0.21 c 0.00622,0 0.012178,0.00247 0.016572,0.00687 0.0044,0.0044 0.00687,0.010356 0.00687,0.016572 v 0.105625 c -2.437e-4,0.00602 -0.00283,0.011715 -0.00721,0.015859 -0.00438,0.00415 -0.0102,0.00642 -0.016228,0.00633 z m -0.1875,-0.046875 h 0.163125 v -0.0575 h -0.1621875 z"
       fill="#000000"
       id="path5"
       style="stroke-width:1.10696;stroke-dasharray:none" />
    <path
       d="m 0.52407192,0.68437714 c -0.019915,0 -0.039381,-0.00591 -0.055937,-0.016981 -0.016553,-0.011069 -0.029451,-0.026803 -0.037057,-0.04521 -0.00761,-0.018403 -0.00958,-0.038653 -0.00567,-0.058181 0.00391,-0.019528 0.013523,-0.037456 0.027627,-0.051516 0.014104,-0.014061 0.032063,-0.023619 0.051604,-0.027467 0.019537,-0.00385 0.039781,-0.00181 0.058163,0.00585 0.018382,0.00766 0.034075,0.02061 0.045093,0.0372 0.011019,0.016588 0.016869,0.036072 0.016806,0.055988 -8.13e-5,0.026635 -0.010721,0.052147 -0.029581,0.07095 -0.018863,0.018803 -0.044409,0.029362 -0.071044,0.029362 z m 0,-0.1540625 c -0.010631,0 -0.021022,0.00316 -0.029862,0.00906 -0.00884,0.00591 -0.015728,0.0143 -0.019797,0.024122 -0.00407,0.00982 -0.00513,0.020628 -0.00306,0.031056 0.00208,0.010425 0.00719,0.020004 0.014713,0.027519 0.00752,0.00752 0.017094,0.012638 0.027519,0.014712 0.010428,0.00208 0.021235,0.00101 0.031057,-0.00306 0.00982,-0.00407 0.018215,-0.010959 0.024122,-0.019797 0.00591,-0.00884 0.00906,-0.019232 0.00906,-0.029863 0,-0.014256 -0.00566,-0.027928 -0.015743,-0.038006 -0.010078,-0.010081 -0.02375,-0.015743 -0.038007,-0.015744 z"
       fill="#000000"
       id="path6"
       style="stroke-width:1.10696;stroke-dasharray:none" />
  </g>
</svg>
